<svg id="visual" viewBox="0 0 900 600" width="900" height="600" xmlns="http://www.w3.org/2000/svg" xmlns:xlink="http://www.w3.org/1999/xlink" version="1.1"><rect x="0" y="0" width="900" height="600" fill="#001220"></rect><defs><linearGradient id="grad1_0" x1="33.3%" y1="0%" x2="100%" y2="100%"><stop offset="20%" stop-color="#001220" stop-opacity="1"></stop><stop offset="80%" stop-color="#001220" stop-opacity="1"></stop></linearGradient></defs><defs><linearGradient id="grad2_0" x1="0%" y1="0%" x2="66.7%" y2="100%"><stop offset="20%" stop-color="#001220" stop-opacity="1"></stop><stop offset="80%" stop-color="#001220" stop-opacity="1"></stop></linearGradient></defs><g transform="translate(900, 0)"><path d="M0 405.6C-55.6 399.2 -111.2 392.7 -151.5 365.9C-191.9 339 -217.1 291.7 -256 256C-294.9 220.2 -347.5 196 -374.7 155.2C-402 114.5 -403.8 57.2 -405.6 0L0 0Z" fill="#FBAE3C"></path></g><g transform="translate(0, 600)"><path d="M0 -405.6C53.7 -400.4 107.4 -395.3 155.2 -374.7C203 -354.2 244.9 -318.4 278.6 -278.6C312.3 -238.8 337.7 -195.2 357.5 -148.1C377.3 -101 391.5 -50.5 405.6 0L0 0Z" fill="#FBAE3C"></path></g></svg>